HIERARCHY
ROOT hip
{
  OFFSET 0 90.174 2.4664
  CHANNELS 6 Xposition Yposition Zposition Zrotation Xrotation Yrotation
  JOINT abdomen
  {
    OFFSET 0 -1.186 -1.5018
    CHANNELS 6 Xposition Yposition Zposition Zrotation Xrotation Yrotation
    JOINT abdomen2
    {
      OFFSET 0 9.964 0.2134
      CHANNELS 6 Xposition Yposition Zposition Zrotation Xrotation Yrotation
      JOINT chest
      {
        OFFSET 0 13.134 -3.2573
        CHANNELS 6 Xposition Yposition Zposition Zrotation Xrotation Yrotation
        JOINT neck
        {
          OFFSET 0 20.686 -1.6905
          CHANNELS 6 Xposition Yposition Zposition Zrotation Xrotation Yrotation
          JOINT head
          {
            OFFSET 0 7.238 -0.1237
            CHANNELS 6 Xposition Yposition Zposition Zrotation Xrotation Yrotation
            End Site
            {
              OFFSET 0 0 0
            }
          }
        }
        JOINT lCollar
        {
          OFFSET 1.7069 20.075 5.0056
          CHANNELS 6 Xposition Yposition Zposition Zrotation Xrotation Yrotation
          JOINT lShldr
          {
            OFFSET 13.6458 -0.047 -4.849
            CHANNELS 6 Xposition Yposition Zposition Zrotation Xrotation Yrotation
            JOINT lForeArm
            {
              OFFSET 28.3255 -0.9759 2.2888
              CHANNELS 6 Xposition Yposition Zposition Zrotation Xrotation Yrotation
              JOINT lHand
              {
                OFFSET 22.1583 -0.53 10.8316
                CHANNELS 6 Xposition Yposition Zposition Zrotation Xrotation Yrotation
                JOINT lThumb1
                {
                  OFFSET 0.786 0.112 2.5817
                  CHANNELS 6 Xposition Yposition Zposition Zrotation Xrotation Yrotation
                  JOINT lThumb2
                  {
                    OFFSET 0.3601 -0.878 4.2331
                    CHANNELS 6 Xposition Yposition Zposition Zrotation Xrotation Yrotation
                    JOINT lThumb2_End
                    {
                      OFFSET 1.8127 -1.216 2.2227
                      CHANNELS 6 Xposition Yposition Zposition Zrotation Xrotation Yrotation
                      End Site
                      {
                        OFFSET 0.0181 -0.0122 0.0222
                      }
                    }
                  }
                }
                JOINT lCarpal1
                {
                  OFFSET 0.9571 1.114 1.7695
                  CHANNELS 6 Xposition Yposition Zposition Zrotation Xrotation Yrotation
                  JOINT lIndex1
                  {
                    OFFSET 4.1246 0.487 4.1451
                    CHANNELS 6 Xposition Yposition Zposition Zrotation Xrotation Yrotation
                    JOINT lIndex2
                    {
                      OFFSET 3.4052 -1.454 2.7682
                      CHANNELS 6 Xposition Yposition Zposition Zrotation Xrotation Yrotation
                      JOINT lIndex2_End
                      {
                        OFFSET 1.4531 -1.795 1.2713
                        CHANNELS 6 Xposition Yposition Zposition Zrotation Xrotation Yrotation
                        End Site
                        {
                          OFFSET 0.0145 -0.0179 0.0127
                        }
                      }
                    }
                  }
                  JOINT lMid1
                  {
                    OFFSET 5.6954 0.21 2.1184
                    CHANNELS 6 Xposition Yposition Zposition Zrotation Xrotation Yrotation
                    JOINT lMid2
                    {
                      OFFSET 3.9766 -1.54 2.3863
                      CHANNELS 6 Xposition Yposition Zposition Zrotation Xrotation Yrotation
                      JOINT lMid2_End
                      {
                        OFFSET 1.4042 -1.926 1.125
                        CHANNELS 6 Xposition Yposition Zposition Zrotation Xrotation Yrotation
                        End Site
                        {
                          OFFSET 0.014 -0.0193 0.0113
                        }
                      }
                    }
                  }
                }
                JOINT lCarpal2
                {
                  OFFSET 2.0956 0.66 -0.3894
                  CHANNELS 6 Xposition Yposition Zposition Zrotation Xrotation Yrotation
                  JOINT lRing1
                  {
                    OFFSET 5.0395 -0.09 2.4971
                    CHANNELS 6 Xposition Yposition Zposition Zrotation Xrotation Yrotation
                    JOINT lRing2
                    {
                      OFFSET 3.7921 -1.552 1.4806
                      CHANNELS 6 Xposition Yposition Zposition Zrotation Xrotation Yrotation
                      JOINT lRing2_End
                      {
                        OFFSET 1.4655 -1.808 0.9609
                        CHANNELS 6 Xposition Yposition Zposition Zrotation Xrotation Yrotation
                        End Site
                        {
                          OFFSET 0.0147 -0.0181 0.0096
                        }
                      }
                    }
                  }
                  JOINT lPinky1
                  {
                    OFFSET 4.9141 -1.269 0.3591
                    CHANNELS 6 Xposition Yposition Zposition Zrotation Xrotation Yrotation
                    JOINT lPinky2
                    {
                      OFFSET 3.1477 -1.685 0.8462
                      CHANNELS 6 Xposition Yposition Zposition Zrotation Xrotation Yrotation
                      JOINT lPinky2_End
                      {
                        OFFSET 0.8055 -1.585 0.7955
                        CHANNELS 6 Xposition Yposition Zposition Zrotation Xrotation Yrotation
                        End Site
                        {
                          OFFSET 0.0081 -0.0158 0.008
                        }
                      }
                    }
                  }
                }
              }
            }
          }
        }
        JOINT rCollar
        {
          OFFSET -1.7069 20.075 5.0056
          CHANNELS 6 Xposition Yposition Zposition Zrotation Xrotation Yrotation
          JOINT rShldr
          {
            OFFSET -13.6458 -0.047 -4.849
            CHANNELS 6 Xposition Yposition Zposition Zrotation Xrotation Yrotation
            JOINT rForeArm
            {
              OFFSET -28.3255 -0.9759 2.2888
              CHANNELS 6 Xposition Yposition Zposition Zrotation Xrotation Yrotation
              JOINT rHand
              {
                OFFSET -22.1583 -0.53 10.8316
                CHANNELS 6 Xposition Yposition Zposition Zrotation Xrotation Yrotation
                JOINT rThumb1
                {
                  OFFSET -0.786 0.112 2.5817
                  CHANNELS 6 Xposition Yposition Zposition Zrotation Xrotation Yrotation
                  JOINT rThumb2
                  {
                    OFFSET -0.3601 -0.878 4.2331
                    CHANNELS 6 Xposition Yposition Zposition Zrotation Xrotation Yrotation
                    JOINT rThumb2_End
                    {
                      OFFSET -1.8127 -1.216 2.2227
                      CHANNELS 6 Xposition Yposition Zposition Zrotation Xrotation Yrotation
                      End Site
                      {
                        OFFSET -0.0181 -0.0122 0.0222
                      }
                    }
                  }
                }
                JOINT rCarpal1
                {
                  OFFSET -0.9571 1.114 1.7695
                  CHANNELS 6 Xposition Yposition Zposition Zrotation Xrotation Yrotation
                  JOINT rIndex1
                  {
                    OFFSET -4.1246 0.487 4.1451
                    CHANNELS 6 Xposition Yposition Zposition Zrotation Xrotation Yrotation
                    JOINT rIndex2
                    {
                      OFFSET -3.4052 -1.454 2.7682
                      CHANNELS 6 Xposition Yposition Zposition Zrotation Xrotation Yrotation
                      JOINT rIndex2_End
                      {
                        OFFSET -1.4531 -1.795 1.2713
                        CHANNELS 6 Xposition Yposition Zposition Zrotation Xrotation Yrotation
                        End Site
                        {
                          OFFSET -0.0145 -0.018 0.0127
                        }
                      }
                    }
                  }
                  JOINT rMid1
                  {
                    OFFSET -5.6954 0.21 2.1184
                    CHANNELS 6 Xposition Yposition Zposition Zrotation Xrotation Yrotation
                    JOINT rMid2
                    {
                      OFFSET -3.9766 -1.54 2.3863
                      CHANNELS 6 Xposition Yposition Zposition Zrotation Xrotation Yrotation
                      JOINT rMid2_End
                      {
                        OFFSET -1.4042 -1.926 1.125
                        CHANNELS 6 Xposition Yposition Zposition Zrotation Xrotation Yrotation
                        End Site
                        {
                          OFFSET -0.014 -0.0193 0.0113
                        }
                      }
                    }
                  }
                }
                JOINT rCarpal2
                {
                  OFFSET -2.0956 0.66 -0.3894
                  CHANNELS 6 Xposition Yposition Zposition Zrotation Xrotation Yrotation
                  JOINT rRing1
                  {
                    OFFSET -5.0395 -0.09 2.4971
                    CHANNELS 6 Xposition Yposition Zposition Zrotation Xrotation Yrotation
                    JOINT rRing2
                    {
                      OFFSET -3.7921 -1.552 1.4806
                      CHANNELS 6 Xposition Yposition Zposition Zrotation Xrotation Yrotation
                      JOINT rRing2_End
                      {
                        OFFSET -1.4655 -1.808 0.9609
                        CHANNELS 6 Xposition Yposition Zposition Zrotation Xrotation Yrotation
                        End Site
                        {
                          OFFSET -0.0147 -0.0181 0.0096
                        }
                      }
                    }
                  }
                  JOINT rPinky1
                  {
                    OFFSET -4.9141 -1.269 0.3592
                    CHANNELS 6 Xposition Yposition Zposition Zrotation Xrotation Yrotation
                    JOINT rPinky2
                    {
                      OFFSET -3.1477 -1.685 0.8462
                      CHANNELS 6 Xposition Yposition Zposition Zrotation Xrotation Yrotation
                      JOINT rPinky2_End
                      {
                        OFFSET -0.8055 -1.585 0.7955
                        CHANNELS 6 Xposition Yposition Zposition Zrotation Xrotation Yrotation
                        End Site
                        {
                          OFFSET -0.0081 -0.0158 0.008
                        }
                      }
                    }
                  }
                }
              }
            }
          }
        }
      }
    }
  }
  JOINT lThigh
  {
    OFFSET 8.367 -8.2066 0.5982
    CHANNELS 6 Xposition Yposition Zposition Zrotation Xrotation Yrotation
    JOINT lShin
    {
      OFFSET 2.1923 -43.463 -0.4932
      CHANNELS 6 Xposition Yposition Zposition Zrotation Xrotation Yrotation
      JOINT lFoot
      {
        OFFSET 0.7333 -45.8593 -2.6451
        CHANNELS 6 Xposition Yposition Zposition Zrotation Xrotation Yrotation
        End Site
        {
          OFFSET 2.6618 -4.2699 12.3931
        }
      }
    }
  }
  JOINT rThigh
  {
    OFFSET -8.367 -8.2066 0.5982
    CHANNELS 6 Xposition Yposition Zposition Zrotation Xrotation Yrotation
    JOINT rShin
    {
      OFFSET -2.1923 -43.463 -0.4931
      CHANNELS 6 Xposition Yposition Zposition Zrotation Xrotation Yrotation
      JOINT rFoot
      {
        OFFSET -0.7333 -45.8593 -2.6451
        CHANNELS 6 Xposition Yposition Zposition Zrotation Xrotation Yrotation
        End Site
        {
          OFFSET -2.6618 -4.2699 12.3931
        }
      }
    }
  }
}
MOTION
Frames:	4
Frame Time:	0.0333333
-10.3238 6.03692 8.42608 92.0831 0.254834 -179.705 0 -1.186 -1.5018 0.455823 0.893851 -0.330873 -8.88178e-016 9.964 0.2134 0.916958 1.78503 -0.668971 0 13.134 -3.2573 0.916943 1.78503 -0.668971 -8.88178e-016 20.686 -1.6905 9.03904 16.7035 -2.70333 1.11022e-016 7.238 -0.1237 -1.68995e-006 15.4504 -5.90704e-007 1.7069 20.075 5.0056 -10.6838 -9.0511 -12.8537 13.6458 -0.047 -4.849 -56.1544 13.8352 -23.0919 28.3255 -0.9759 2.2888 -7.24319 3.13297 -49.6614 22.1583 -0.53 10.8316 -51.5181 21.7378 -0.762885 0.786 0.112 2.5817 1.59028e-015 0 -2.38542e-015 0.3601 -0.878 4.2331 -1.59028e-015 0 -5.1684e-015 1.8127 -1.216 2.2227 -3.72414e-006 -3.14302e-006 -4.44126e-006 0.9571 1.114 1.7695 0 0 -1.98785e-015 4.1246 0.487 4.1451 -1.59028e-015 0 -5.1684e-015 3.4052 -1.454 2.7682 -2.86904e-031 -3.18055e-015 -5.1684e-015 1.4531 -1.795 1.2713 -3.72414e-006 -3.14302e-006 -4.44126e-006 5.6954 0.21 2.1184 -1.59028e-015 0 -5.1684e-015 3.9766 -1.54 2.3863 -2.86904e-031 -3.18055e-015 -5.1684e-015 1.4042 -1.926 1.125 -3.72414e-006 -3.14302e-006 -4.44126e-006 2.0956 0.66 -0.3894 0 0 -1.98785e-015 5.0395 -0.09 2.4971 -1.59028e-015 0 -5.1684e-015 3.7921 -1.552 1.4806 -2.86904e-031 -3.18055e-015 -5.1684e-015 1.4655 -1.808 0.9609 -3.72414e-006 -3.14302e-006 -4.44126e-006 4.9141 -1.269 0.3591 -1.59028e-015 0 -5.1684e-015 3.1477 -1.685 0.8462 -2.86904e-031 -3.18055e-015 -5.1684e-015 0.8055 -1.585 0.7955 -3.72414e-006 -3.14302e-006 -4.44126e-006 -1.7069 20.075 5.0056 -14.8277 -13.1076 -14.9029 -13.6458 -0.047 -4.849 53.2392 8.44467 48.094 -28.3255 -0.9759 2.2888 55.795 2.82446 52.9988 -22.1583 -0.53 10.8316 46.1657 5.42539 6.7096 -0.786 0.112 2.5817 -0 0 3.97569e-016 -0.3601 -0.878 4.2331 -1.59028e-015 0 1.98785e-016 -1.8127 -1.216 2.2227 -0 0 1.59028e-015 -0.9571 1.114 1.7695 0 0 -0 -4.1246 0.487 4.1451 -1.59028e-015 -1.59028e-015 1.31198e-014 -3.4052 -1.454 2.7682 -4.77083e-015 0 -1.98785e-016 -1.4531 -1.795 1.2713 -3.18055e-015 1.59028e-015 -9.93923e-016 -5.6954 0.21 2.1184 -1.59028e-015 -1.59028e-015 1.31198e-014 -3.9766 -1.54 2.3863 -4.77083e-015 0 -1.98785e-016 -1.4042 -1.926 1.125 -3.18055e-015 1.59028e-015 -9.93923e-016 -2.0956 0.66 -0.3894 0 0 -0 -5.0395 -0.09 2.4971 -1.59028e-015 -1.59028e-015 1.31198e-014 -3.7921 -1.552 1.4806 -4.77083e-015 0 -1.98785e-016 -1.4655 -1.808 0.9609 -3.18055e-015 1.59028e-015 -9.93923e-016 -4.9141 -1.269 0.3592 -1.59028e-015 -1.59028e-015 1.31198e-014 -3.1477 -1.685 0.8462 -4.77083e-015 0 -1.98785e-016 -0.8055 -1.585 0.7955 -3.18055e-015 1.59028e-015 -9.93923e-016 8.367 -8.2066 0.5982 6.80978 -3.91594 8.74263 2.1923 -43.463 -0.4932 -1.50028 51.1157 -0.172925 0.7333 -45.8593 -2.6451 4.07925 43.2029 -0.403217 -8.367 -8.2066 0.5982 -26.3558 -34.8257 -17.993 -2.1923 -43.463 -0.4931 83.1362 28.2397 -94.9598 -0.7333 -45.8593 -2.6451 6.11308 26.4423 2.83196 
-10.2509 6.24745 9.0007 92.3597 0.310429 -179.518 8.88178e-016 -1.186 -1.5018 0.451913 1.25091 -0.339378 8.88178e-016 9.964 0.2134 0.911593 2.49907 -0.688865 0 13.134 -3.2573 0.911593 2.49907 -0.688865 -8.88178e-016 20.686 -1.6905 8.06584 14.1251 -2.23772 3.33067e-016 7.238 -0.1237 -3.75982e-006 14.1335 6.18146e-006 1.7069 20.075 5.0056 -10.5839 -10.6182 -11.7193 13.6458 -0.047 -4.849 -56.4257 14.6259 -24.4246 28.3255 -0.9759 2.2888 -9.17824 5.21384 -44.2769 22.1583 -0.53 10.8316 -49.601 22.0324 -1.63398 0.786 0.112 2.5817 -3.18055e-015 0 3.37934e-015 0.3601 -0.878 4.2331 -1.65521e-032 1.59028e-015 5.96354e-016 1.8127 -1.216 2.2227 -3.18055e-015 1.59028e-015 3.97569e-016 0.9571 1.114 1.7695 -3.18055e-015 -3.18055e-015 3.37934e-015 4.1246 0.487 4.1451 -1.93108e-031 1.59028e-015 6.95746e-015 3.4052 -1.454 2.7682 -1.59028e-015 0 3.97569e-015 1.4531 -1.795 1.2713 -1.59028e-015 0 3.77691e-015 5.6954 0.21 2.1184 -1.93108e-031 1.59028e-015 6.95746e-015 3.9766 -1.54 2.3863 -1.59028e-015 0 3.97569e-015 1.4042 -1.926 1.125 -1.59028e-015 0 3.77691e-015 2.0956 0.66 -0.3894 -3.18055e-015 -3.18055e-015 3.37934e-015 5.0395 -0.09 2.4971 -1.93108e-031 1.59028e-015 6.95746e-015 3.7921 -1.552 1.4806 -1.59028e-015 0 3.97569e-015 1.4655 -1.808 0.9609 -1.59028e-015 0 3.77691e-015 4.9141 -1.269 0.3591 -1.93108e-031 1.59028e-015 6.95746e-015 3.1477 -1.685 0.8462 -1.59028e-015 0 3.97569e-015 0.8055 -1.585 0.7955 -1.59028e-015 0 3.77691e-015 -1.7069 20.075 5.0056 -14.6277 -14.4118 -13.0121 -13.6458 -0.047 -4.849 52.9703 7.96478 48.2296 -28.3255 -0.9759 2.2888 55.5934 2.09091 52.8114 -22.1583 -0.53 10.8316 45.105 6.01118 6.5689 -0.786 0.112 2.5817 5.00747e-006 2.55388e-006 -2.1954e-006 -0.3601 -0.878 4.2331 -4.31794e-007 -5.17215e-006 -7.89236e-006 -1.8127 -1.216 2.2227 3.90472e-006 2.46203e-006 4.32758e-006 -0.9571 1.114 1.7695 -1.59028e-015 -3.18055e-015 -1.98785e-016 -4.1246 0.487 4.1451 5.00747e-006 2.55388e-006 -2.1954e-006 -3.4052 -1.454 2.7682 -4.31794e-007 -5.17215e-006 -7.89236e-006 -1.4531 -1.795 1.2713 3.90472e-006 2.46203e-006 4.32758e-006 -5.6954 0.21 2.1184 5.00747e-006 2.55388e-006 -2.1954e-006 -3.9766 -1.54 2.3863 -4.31794e-007 -5.17215e-006 -7.89236e-006 -1.4042 -1.926 1.125 3.90472e-006 2.46203e-006 4.32758e-006 -2.0956 0.66 -0.3894 -1.59028e-015 -3.18055e-015 -1.98785e-016 -5.0395 -0.09 2.4971 5.00747e-006 2.55388e-006 -2.1954e-006 -3.7921 -1.552 1.4806 -4.31794e-007 -5.17215e-006 -7.89236e-006 -1.4655 -1.808 0.9609 3.90472e-006 2.46203e-006 4.32758e-006 -4.9141 -1.269 0.3592 5.00747e-006 2.55388e-006 -2.1954e-006 -3.1477 -1.685 0.8462 -4.31794e-007 -5.17215e-006 -7.89236e-006 -0.8055 -1.585 0.7955 3.90472e-006 2.46203e-006 4.32758e-006 8.367 -8.2066 0.5982 6.81816 -4.61804 8.80964 2.1923 -43.463 -0.4932 -1.38055 51.7694 -0.245834 0.7333 -45.8593 -2.6451 4.07241 43.2185 -0.400533 -8.367 -8.2066 0.5982 -26.2913 -35.2673 -18.1481 -2.1923 -43.463 -0.4931 83.1262 28.2383 -94.9397 -0.7333 -45.8593 -2.6451 5.89374 26.5246 2.35902 
-10.1837 6.41396 9.54773 92.7921 0.399149 -179.225 0 -1.186 -1.5018 0.448207 1.58842 -0.34734 0 9.964 0.2134 0.906611 3.17404 -0.707514 8.88178e-016 13.134 -3.2573 0.906591 3.17404 -0.707515 0 20.686 -1.6905 7.17379 11.6741 -1.84324 6.66134e-016 7.238 -0.1237 -2.13946e-005 12.8896 4.96262e-009 1.7069 20.075 5.0056 -10.4603 -12.0976 -10.6382 13.6458 -0.047 -4.849 -56.6658 15.3794 -25.6847 28.3255 -0.9759 2.2888 -11.2016 6.99094 -39.0823 22.1583 -0.53 10.8316 -47.7808 22.2858 -2.46886 0.786 0.112 2.5817 -2.38542e-015 4.77083e-015 7.35503e-015 0.3601 -0.878 4.2331 -2.00407e-006 -1.42459e-006 -2.15152e-006 1.8127 -1.216 2.2227 -1.59028e-015 1.59028e-015 5.1684e-015 0.9571 1.114 1.7695 -7.95139e-016 1.59028e-015 4.37326e-015 4.1246 0.487 4.1451 -1.59028e-015 4.77083e-015 1.07344e-014 3.4052 -1.454 2.7682 -2.00407e-006 -1.42459e-006 -2.15152e-006 1.4531 -1.795 1.2713 -1.59028e-015 0 2.18663e-015 5.6954 0.21 2.1184 -1.59028e-015 4.77083e-015 1.07344e-014 3.9766 -1.54 2.3863 -2.00407e-006 -1.42459e-006 -2.15152e-006 1.4042 -1.926 1.125 -1.59028e-015 0 2.18663e-015 2.0956 0.66 -0.3894 -7.95139e-016 1.59028e-015 4.37326e-015 5.0395 -0.09 2.4971 -1.59028e-015 4.77083e-015 1.07344e-014 3.7921 -1.552 1.4806 -2.00407e-006 -1.42459e-006 -2.15152e-006 1.4655 -1.808 0.9609 -1.59028e-015 0 2.18663e-015 4.9141 -1.269 0.3591 -1.59028e-015 4.77083e-015 1.07344e-014 3.1477 -1.685 0.8462 -2.00407e-006 -1.42459e-006 -2.15152e-006 0.8055 -1.585 0.7955 -1.59028e-015 0 2.18663e-015 -1.7069 20.075 5.0056 -14.397 -15.6393 -11.2075 -13.6458 -0.047 -4.849 52.7179 7.51124 48.3551 -28.3255 -0.9759 2.2888 55.401 1.39941 52.6315 -22.1583 -0.53 10.8316 44.1034 6.56673 6.44613 -0.786 0.112 2.5817 1.10348e-032 -1.59028e-015 3.97569e-016 -0.3601 -0.878 4.2331 2.20695e-032 -1.59028e-015 7.95139e-016 -1.8127 -1.216 2.2227 1.10348e-032 -3.18055e-015 1.98785e-016 -0.9571 1.114 1.7695 1.10348e-032 1.59028e-015 -3.97569e-016 -4.1246 0.487 4.1451 1.59028e-015 -1.59028e-015 7.95139e-016 -3.4052 -1.454 2.7682 -0 0 1.78906e-015 -1.4531 -1.795 1.2713 -0 0 3.97569e-016 -5.6954 0.21 2.1184 1.59028e-015 -1.59028e-015 7.95139e-016 -3.9766 -1.54 2.3863 -0 0 1.78906e-015 -1.4042 -1.926 1.125 -0 0 3.97569e-016 -2.0956 0.66 -0.3894 1.10348e-032 1.59028e-015 -3.97569e-016 -5.0395 -0.09 2.4971 1.59028e-015 -1.59028e-015 7.95139e-016 -3.7921 -1.552 1.4806 -0 0 1.78906e-015 -1.4655 -1.808 0.9609 -0 0 3.97569e-016 -4.9141 -1.269 0.3592 1.59028e-015 -1.59028e-015 7.95139e-016 -3.1477 -1.685 0.8462 -0 0 1.78906e-015 -0.8055 -1.585 0.7955 -0 0 3.97569e-016 8.367 -8.2066 0.5982 6.82907 -5.29661 8.87276 2.1923 -43.463 -0.4932 -1.26669 52.4137 -0.314566 0.7333 -45.8593 -2.6451 4.06677 43.2219 -0.39808 -8.367 -8.2066 0.5982 -26.2396 -35.6812 -18.295 -2.1923 -43.463 -0.4931 83.1174 28.2368 -94.9186 -0.7333 -45.8593 -2.6451 5.69067 26.6103 1.91342 
-10.1187 6.50933 10.106 93.6027 0.57045 -178.676 0 -1.186 -1.5018 0.444487 1.9264 -0.355248 0 9.964 0.2134 0.90171 3.84994 -0.726066 -8.88178e-016 13.134 -3.2573 0.901721 3.84994 -0.726066 8.88178e-016 20.686 -1.6905 6.30146 9.20996 -1.48917 -2.22045e-016 7.238 -0.1237 8.43541e-006 11.6448 5.46453e-006 1.7069 20.075 5.0056 -10.307 -13.5769 -9.5456 13.6458 -0.047 -4.849 -56.8897 16.1386 -26.9476 28.3255 -0.9759 2.2888 -13.3882 8.576 -33.8026 22.1583 -0.53 10.8316 -45.951 22.5146 -3.31465 0.786 0.112 2.5817 7.95139e-016 3.18055e-015 1.07344e-014 0.3601 -0.878 4.2331 -2.06996e-006 -1.36034e-006 -2.10746e-006 1.8127 -1.216 2.2227 5.61234e-007 7.11254e-007 3.54975e-006 0.9571 1.114 1.7695 1.59028e-015 2.38542e-015 7.55382e-015 4.1246 0.487 4.1451 1.59028e-015 4.77083e-015 2.37548e-014 3.4052 -1.454 2.7682 -2.06996e-006 -1.36034e-006 -2.10746e-006 1.4531 -1.795 1.2713 5.61234e-007 7.11254e-007 3.54975e-006 5.6954 0.21 2.1184 1.59028e-015 4.77083e-015 2.37548e-014 3.9766 -1.54 2.3863 -2.06996e-006 -1.36034e-006 -2.10746e-006 1.4042 -1.926 1.125 5.61234e-007 7.11254e-007 3.54975e-006 2.0956 0.66 -0.3894 1.59028e-015 2.38542e-015 7.55382e-015 5.0395 -0.09 2.4971 1.59028e-015 4.77083e-015 2.37548e-014 3.7921 -1.552 1.4806 -2.06996e-006 -1.36034e-006 -2.10746e-006 1.4655 -1.808 0.9609 5.61234e-007 7.11254e-007 3.54975e-006 4.9141 -1.269 0.3591 1.59028e-015 4.77083e-015 2.37548e-014 3.1477 -1.685 0.8462 -2.06996e-006 -1.36034e-006 -2.10746e-006 0.8055 -1.585 0.7955 5.61234e-007 7.11254e-007 3.54975e-006 -1.7069 20.075 5.0056 -14.1239 -16.8618 -9.38247 -13.6458 -0.047 -4.849 52.4667 7.05708 48.4785 -28.3255 -0.9759 2.2888 55.2064 0.708291 52.4494 -22.1583 -0.53 10.8316 43.1012 7.12467 6.33294 -0.786 0.112 2.5817 1.94639e-006 5.43991e-006 -4.46513e-006 -0.3601 -0.878 4.2331 -1.94639e-006 -5.43991e-006 4.46513e-006 -1.8127 -1.216 2.2227 0 0 -1.98785e-016 -0.9571 1.114 1.7695 -3.18055e-015 -1.59028e-015 5.96354e-016 -4.1246 0.487 4.1451 1.94639e-006 5.43991e-006 -4.46513e-006 -3.4052 -1.454 2.7682 -1.94639e-006 -5.43991e-006 4.46513e-006 -1.4531 -1.795 1.2713 -3.18055e-015 1.59028e-015 -2.38542e-015 -5.6954 0.21 2.1184 1.94639e-006 5.43991e-006 -4.46513e-006 -3.9766 -1.54 2.3863 -1.94639e-006 -5.43991e-006 4.46513e-006 -1.4042 -1.926 1.125 -3.18055e-015 1.59028e-015 -2.38542e-015 -2.0956 0.66 -0.3894 -3.18055e-015 -1.59028e-015 5.96354e-016 -5.0395 -0.09 2.4971 1.94639e-006 5.43991e-006 -4.46513e-006 -3.7921 -1.552 1.4806 -1.94639e-006 -5.43991e-006 4.46513e-006 -1.4655 -1.808 0.9609 -3.18055e-015 1.59028e-015 -2.38542e-015 -4.9141 -1.269 0.3592 1.94639e-006 5.43991e-006 -4.46513e-006 -3.1477 -1.685 0.8462 -1.94639e-006 -5.43991e-006 4.46513e-006 -0.8055 -1.585 0.7955 -3.18055e-015 1.59028e-015 -2.38542e-015 8.367 -8.2066 0.5982 6.84522 -6.01043 8.93575 2.1923 -43.463 -0.4932 -1.15397 53.1186 -0.379276 0.7333 -45.8593 -2.6451 4.06348 43.2 -0.39615 -8.367 -8.2066 0.5982 -26.2064 -36.0885 -18.4427 -2.1923 -43.463 -0.4931 83.109 28.2351 -94.892 -0.7333 -45.8593 -2.6451 5.49622 26.7113 1.46881 
